<mxfile host="app.diagrams.net" modified="2021-04-27T08:02:50.548Z" agent="5.0 (Macintosh; Intel Mac OS X 10_14_6) AppleWebKit/605.1.15 (KHTML, like Gecko) Version/14.0.3 Safari/605.1.15" etag="xVzg-ICC3ss-ePT92BUT" version="14.6.6" type="github">
  <diagram id="fVpHh27UU1YPo0uFNJfC" name="Page-1">
    <mxGraphModel dx="735" dy="583" grid="1" gridSize="10" guides="1" tooltips="1" connect="1" arrows="1" fold="1" page="1" pageScale="1" pageWidth="850" pageHeight="1100" math="0" shadow="0">
      <root>
        <mxCell id="0" />
        <mxCell id="1" parent="0" />
        <mxCell id="tsZpAfOMxq68A9OB6aMD-30" style="edgeStyle=orthogonalEdgeStyle;rounded=0;orthogonalLoop=1;jettySize=auto;html=1;exitX=1;exitY=0.5;exitDx=0;exitDy=0;entryX=0;entryY=0.5;entryDx=0;entryDy=0;" edge="1" parent="1" source="tsZpAfOMxq68A9OB6aMD-1" target="tsZpAfOMxq68A9OB6aMD-3">
          <mxGeometry relative="1" as="geometry" />
        </mxCell>
        <mxCell id="tsZpAfOMxq68A9OB6aMD-61" value="flatten" style="edgeLabel;html=1;align=center;verticalAlign=middle;resizable=0;points=[];" vertex="1" connectable="0" parent="tsZpAfOMxq68A9OB6aMD-30">
          <mxGeometry x="-0.6842" y="2" relative="1" as="geometry">
            <mxPoint x="15" y="2" as="offset" />
          </mxGeometry>
        </mxCell>
        <mxCell id="tsZpAfOMxq68A9OB6aMD-1" value="14x14" style="rounded=0;whiteSpace=wrap;html=1;" vertex="1" parent="1">
          <mxGeometry x="30" y="120" width="60" height="60" as="geometry" />
        </mxCell>
        <mxCell id="tsZpAfOMxq68A9OB6aMD-31" style="edgeStyle=orthogonalEdgeStyle;rounded=0;orthogonalLoop=1;jettySize=auto;html=1;exitX=1;exitY=0.5;exitDx=0;exitDy=0;" edge="1" parent="1" source="tsZpAfOMxq68A9OB6aMD-2">
          <mxGeometry relative="1" as="geometry">
            <mxPoint x="150" y="190" as="targetPoint" />
          </mxGeometry>
        </mxCell>
        <mxCell id="tsZpAfOMxq68A9OB6aMD-62" value="flatten" style="edgeLabel;html=1;align=center;verticalAlign=middle;resizable=0;points=[];" vertex="1" connectable="0" parent="tsZpAfOMxq68A9OB6aMD-31">
          <mxGeometry x="-0.3778" relative="1" as="geometry">
            <mxPoint as="offset" />
          </mxGeometry>
        </mxCell>
        <mxCell id="tsZpAfOMxq68A9OB6aMD-2" value="14x14" style="rounded=0;whiteSpace=wrap;html=1;" vertex="1" parent="1">
          <mxGeometry x="30" y="190" width="60" height="60" as="geometry" />
        </mxCell>
        <mxCell id="tsZpAfOMxq68A9OB6aMD-32" style="edgeStyle=orthogonalEdgeStyle;rounded=0;orthogonalLoop=1;jettySize=auto;html=1;exitX=1;exitY=0.5;exitDx=0;exitDy=0;" edge="1" parent="1" source="tsZpAfOMxq68A9OB6aMD-3" target="tsZpAfOMxq68A9OB6aMD-9">
          <mxGeometry relative="1" as="geometry" />
        </mxCell>
        <mxCell id="tsZpAfOMxq68A9OB6aMD-3" value="2x14x14" style="rounded=0;whiteSpace=wrap;html=1;" vertex="1" parent="1">
          <mxGeometry x="150" y="170" width="100" height="30" as="geometry" />
        </mxCell>
        <mxCell id="tsZpAfOMxq68A9OB6aMD-10" value="" style="group" vertex="1" connectable="0" parent="1">
          <mxGeometry x="300" y="35" width="60" height="300" as="geometry" />
        </mxCell>
        <mxCell id="tsZpAfOMxq68A9OB6aMD-9" value="" style="rounded=0;whiteSpace=wrap;html=1;rotation=90;" vertex="1" parent="tsZpAfOMxq68A9OB6aMD-10">
          <mxGeometry x="-120" y="120" width="300" height="60" as="geometry" />
        </mxCell>
        <mxCell id="tsZpAfOMxq68A9OB6aMD-4" value="" style="ellipse;whiteSpace=wrap;html=1;aspect=fixed;" vertex="1" parent="tsZpAfOMxq68A9OB6aMD-10">
          <mxGeometry x="10" y="10" width="40" height="40" as="geometry" />
        </mxCell>
        <mxCell id="tsZpAfOMxq68A9OB6aMD-5" value="" style="ellipse;whiteSpace=wrap;html=1;aspect=fixed;" vertex="1" parent="tsZpAfOMxq68A9OB6aMD-10">
          <mxGeometry x="10" y="60" width="40" height="40" as="geometry" />
        </mxCell>
        <mxCell id="tsZpAfOMxq68A9OB6aMD-47" style="edgeStyle=orthogonalEdgeStyle;rounded=0;orthogonalLoop=1;jettySize=auto;html=1;exitX=0.5;exitY=1;exitDx=0;exitDy=0;entryX=0.5;entryY=0;entryDx=0;entryDy=0;endArrow=none;endFill=0;dashed=1;" edge="1" parent="tsZpAfOMxq68A9OB6aMD-10" source="tsZpAfOMxq68A9OB6aMD-6" target="tsZpAfOMxq68A9OB6aMD-7">
          <mxGeometry relative="1" as="geometry" />
        </mxCell>
        <mxCell id="tsZpAfOMxq68A9OB6aMD-6" value="" style="ellipse;whiteSpace=wrap;html=1;aspect=fixed;" vertex="1" parent="tsZpAfOMxq68A9OB6aMD-10">
          <mxGeometry x="10" y="110" width="40" height="40" as="geometry" />
        </mxCell>
        <mxCell id="tsZpAfOMxq68A9OB6aMD-7" value="" style="ellipse;whiteSpace=wrap;html=1;aspect=fixed;" vertex="1" parent="tsZpAfOMxq68A9OB6aMD-10">
          <mxGeometry x="10" y="200" width="40" height="40" as="geometry" />
        </mxCell>
        <mxCell id="tsZpAfOMxq68A9OB6aMD-8" value="" style="ellipse;whiteSpace=wrap;html=1;aspect=fixed;" vertex="1" parent="tsZpAfOMxq68A9OB6aMD-10">
          <mxGeometry x="10" y="250" width="40" height="40" as="geometry" />
        </mxCell>
        <mxCell id="tsZpAfOMxq68A9OB6aMD-11" value="" style="group;fillColor=#f8cecc;strokeColor=#B85450;strokeWidth=5;" vertex="1" connectable="0" parent="1">
          <mxGeometry x="440" y="35" width="60" height="300" as="geometry" />
        </mxCell>
        <mxCell id="tsZpAfOMxq68A9OB6aMD-12" value="" style="rounded=0;whiteSpace=wrap;html=1;rotation=90;" vertex="1" parent="tsZpAfOMxq68A9OB6aMD-11">
          <mxGeometry x="-120" y="120" width="300" height="60" as="geometry" />
        </mxCell>
        <mxCell id="tsZpAfOMxq68A9OB6aMD-13" value="" style="ellipse;whiteSpace=wrap;html=1;aspect=fixed;" vertex="1" parent="tsZpAfOMxq68A9OB6aMD-11">
          <mxGeometry x="10" y="10" width="40" height="40" as="geometry" />
        </mxCell>
        <mxCell id="tsZpAfOMxq68A9OB6aMD-14" value="" style="ellipse;whiteSpace=wrap;html=1;aspect=fixed;" vertex="1" parent="tsZpAfOMxq68A9OB6aMD-11">
          <mxGeometry x="10" y="60" width="40" height="40" as="geometry" />
        </mxCell>
        <mxCell id="tsZpAfOMxq68A9OB6aMD-48" style="edgeStyle=orthogonalEdgeStyle;rounded=0;orthogonalLoop=1;jettySize=auto;html=1;exitX=0.5;exitY=1;exitDx=0;exitDy=0;entryX=0.5;entryY=0;entryDx=0;entryDy=0;dashed=1;endArrow=none;endFill=0;" edge="1" parent="tsZpAfOMxq68A9OB6aMD-11" source="tsZpAfOMxq68A9OB6aMD-15" target="tsZpAfOMxq68A9OB6aMD-16">
          <mxGeometry relative="1" as="geometry" />
        </mxCell>
        <mxCell id="tsZpAfOMxq68A9OB6aMD-15" value="" style="ellipse;whiteSpace=wrap;html=1;aspect=fixed;" vertex="1" parent="tsZpAfOMxq68A9OB6aMD-11">
          <mxGeometry x="10" y="110" width="40" height="40" as="geometry" />
        </mxCell>
        <mxCell id="tsZpAfOMxq68A9OB6aMD-16" value="" style="ellipse;whiteSpace=wrap;html=1;aspect=fixed;" vertex="1" parent="tsZpAfOMxq68A9OB6aMD-11">
          <mxGeometry x="10" y="200" width="40" height="40" as="geometry" />
        </mxCell>
        <mxCell id="tsZpAfOMxq68A9OB6aMD-17" value="" style="ellipse;whiteSpace=wrap;html=1;aspect=fixed;" vertex="1" parent="tsZpAfOMxq68A9OB6aMD-11">
          <mxGeometry x="10" y="250" width="40" height="40" as="geometry" />
        </mxCell>
        <mxCell id="tsZpAfOMxq68A9OB6aMD-33" style="edgeStyle=orthogonalEdgeStyle;rounded=0;orthogonalLoop=1;jettySize=auto;html=1;exitX=0.5;exitY=0;exitDx=0;exitDy=0;entryX=0.5;entryY=1;entryDx=0;entryDy=0;" edge="1" parent="1" source="tsZpAfOMxq68A9OB6aMD-9" target="tsZpAfOMxq68A9OB6aMD-12">
          <mxGeometry relative="1" as="geometry" />
        </mxCell>
        <mxCell id="tsZpAfOMxq68A9OB6aMD-36" value="" style="group" vertex="1" connectable="0" parent="1">
          <mxGeometry x="570" y="35" width="60" height="300" as="geometry" />
        </mxCell>
        <mxCell id="tsZpAfOMxq68A9OB6aMD-37" value="" style="rounded=0;whiteSpace=wrap;html=1;rotation=90;" vertex="1" parent="tsZpAfOMxq68A9OB6aMD-36">
          <mxGeometry x="-120" y="120" width="300" height="60" as="geometry" />
        </mxCell>
        <mxCell id="tsZpAfOMxq68A9OB6aMD-38" value="" style="ellipse;whiteSpace=wrap;html=1;aspect=fixed;" vertex="1" parent="tsZpAfOMxq68A9OB6aMD-36">
          <mxGeometry x="10" y="10" width="40" height="40" as="geometry" />
        </mxCell>
        <mxCell id="tsZpAfOMxq68A9OB6aMD-39" value="" style="ellipse;whiteSpace=wrap;html=1;aspect=fixed;" vertex="1" parent="tsZpAfOMxq68A9OB6aMD-36">
          <mxGeometry x="10" y="60" width="40" height="40" as="geometry" />
        </mxCell>
        <mxCell id="tsZpAfOMxq68A9OB6aMD-49" style="edgeStyle=orthogonalEdgeStyle;rounded=0;orthogonalLoop=1;jettySize=auto;html=1;exitX=0.5;exitY=1;exitDx=0;exitDy=0;entryX=0.5;entryY=0;entryDx=0;entryDy=0;dashed=1;endArrow=none;endFill=0;" edge="1" parent="tsZpAfOMxq68A9OB6aMD-36" source="tsZpAfOMxq68A9OB6aMD-40" target="tsZpAfOMxq68A9OB6aMD-41">
          <mxGeometry relative="1" as="geometry" />
        </mxCell>
        <mxCell id="tsZpAfOMxq68A9OB6aMD-40" value="" style="ellipse;whiteSpace=wrap;html=1;aspect=fixed;" vertex="1" parent="tsZpAfOMxq68A9OB6aMD-36">
          <mxGeometry x="10" y="110" width="40" height="40" as="geometry" />
        </mxCell>
        <mxCell id="tsZpAfOMxq68A9OB6aMD-41" value="" style="ellipse;whiteSpace=wrap;html=1;aspect=fixed;" vertex="1" parent="tsZpAfOMxq68A9OB6aMD-36">
          <mxGeometry x="10" y="200" width="40" height="40" as="geometry" />
        </mxCell>
        <mxCell id="tsZpAfOMxq68A9OB6aMD-42" value="" style="ellipse;whiteSpace=wrap;html=1;aspect=fixed;" vertex="1" parent="tsZpAfOMxq68A9OB6aMD-36">
          <mxGeometry x="10" y="250" width="40" height="40" as="geometry" />
        </mxCell>
        <mxCell id="tsZpAfOMxq68A9OB6aMD-43" style="edgeStyle=orthogonalEdgeStyle;rounded=0;orthogonalLoop=1;jettySize=auto;html=1;exitX=0.5;exitY=0;exitDx=0;exitDy=0;entryX=0.5;entryY=1;entryDx=0;entryDy=0;" edge="1" parent="1" source="tsZpAfOMxq68A9OB6aMD-12" target="tsZpAfOMxq68A9OB6aMD-37">
          <mxGeometry relative="1" as="geometry" />
        </mxCell>
        <mxCell id="tsZpAfOMxq68A9OB6aMD-44" value="2x1" style="rounded=0;whiteSpace=wrap;html=1;" vertex="1" parent="1">
          <mxGeometry x="660" y="165" width="50" height="40" as="geometry" />
        </mxCell>
        <mxCell id="tsZpAfOMxq68A9OB6aMD-45" style="edgeStyle=orthogonalEdgeStyle;rounded=0;orthogonalLoop=1;jettySize=auto;html=1;exitX=0.5;exitY=0;exitDx=0;exitDy=0;entryX=0;entryY=0.5;entryDx=0;entryDy=0;" edge="1" parent="1" source="tsZpAfOMxq68A9OB6aMD-37" target="tsZpAfOMxq68A9OB6aMD-44">
          <mxGeometry relative="1" as="geometry" />
        </mxCell>
        <mxCell id="tsZpAfOMxq68A9OB6aMD-46" value="" style="endArrow=none;dashed=1;html=1;dashPattern=1 3;strokeWidth=2;" edge="1" parent="1" target="tsZpAfOMxq68A9OB6aMD-9">
          <mxGeometry width="50" height="50" relative="1" as="geometry">
            <mxPoint x="360" y="260" as="sourcePoint" />
            <mxPoint x="410" y="210" as="targetPoint" />
          </mxGeometry>
        </mxCell>
        <mxCell id="tsZpAfOMxq68A9OB6aMD-50" value="Hidden Linear Layer" style="text;html=1;align=center;verticalAlign=middle;resizable=0;points=[];autosize=1;strokeColor=none;" vertex="1" parent="1">
          <mxGeometry x="410" y="10" width="120" height="20" as="geometry" />
        </mxCell>
        <mxCell id="tsZpAfOMxq68A9OB6aMD-51" value="Input Linear Layer" style="text;html=1;align=center;verticalAlign=middle;resizable=0;points=[];autosize=1;strokeColor=none;" vertex="1" parent="1">
          <mxGeometry x="275" y="10" width="110" height="20" as="geometry" />
        </mxCell>
        <mxCell id="tsZpAfOMxq68A9OB6aMD-52" value="Output Linear Layer" style="text;html=1;align=center;verticalAlign=middle;resizable=0;points=[];autosize=1;strokeColor=none;" vertex="1" parent="1">
          <mxGeometry x="540" y="10" width="120" height="20" as="geometry" />
        </mxCell>
        <mxCell id="tsZpAfOMxq68A9OB6aMD-56" value="ReLu" style="text;html=1;align=center;verticalAlign=middle;resizable=0;points=[];autosize=1;strokeColor=none;" vertex="1" parent="1">
          <mxGeometry x="380" y="165" width="40" height="20" as="geometry" />
        </mxCell>
        <mxCell id="tsZpAfOMxq68A9OB6aMD-57" value="ReLu" style="text;html=1;align=center;verticalAlign=middle;resizable=0;points=[];autosize=1;strokeColor=none;" vertex="1" parent="1">
          <mxGeometry x="516" y="165" width="40" height="20" as="geometry" />
        </mxCell>
        <mxCell id="tsZpAfOMxq68A9OB6aMD-58" value="In, Out: 392, 392" style="text;html=1;align=center;verticalAlign=middle;resizable=0;points=[];autosize=1;strokeColor=none;" vertex="1" parent="1">
          <mxGeometry x="280" y="340" width="100" height="20" as="geometry" />
        </mxCell>
        <mxCell id="tsZpAfOMxq68A9OB6aMD-59" value="In, Out: 392, 392" style="text;html=1;align=center;verticalAlign=middle;resizable=0;points=[];autosize=1;strokeColor=none;" vertex="1" parent="1">
          <mxGeometry x="420" y="340" width="100" height="20" as="geometry" />
        </mxCell>
        <mxCell id="tsZpAfOMxq68A9OB6aMD-60" value="In, Out: 392, 2" style="text;html=1;align=center;verticalAlign=middle;resizable=0;points=[];autosize=1;strokeColor=none;" vertex="1" parent="1">
          <mxGeometry x="555" y="340" width="90" height="20" as="geometry" />
        </mxCell>
        <mxCell id="tsZpAfOMxq68A9OB6aMD-63" value="Input" style="text;html=1;align=center;verticalAlign=middle;resizable=0;points=[];autosize=1;strokeColor=none;" vertex="1" parent="1">
          <mxGeometry x="180" y="150" width="40" height="20" as="geometry" />
        </mxCell>
        <mxCell id="tsZpAfOMxq68A9OB6aMD-64" value="Output" style="text;html=1;align=center;verticalAlign=middle;resizable=0;points=[];autosize=1;strokeColor=none;" vertex="1" parent="1">
          <mxGeometry x="660" y="145" width="50" height="20" as="geometry" />
        </mxCell>
      </root>
    </mxGraphModel>
  </diagram>
</mxfile>
